<?xml version="1.0" encoding="utf-8"?>
<!-- Generator: Adobe Illustrator 16.0.0, SVG Export Plug-In . SVG Version: 6.00 Build 0)  -->
<!DOCTYPE svg PUBLIC "-//W3C//DTD SVG 1.1//EN" "http://www.w3.org/Graphics/SVG/1.1/DTD/svg11.dtd">
<svg version="1.1" id="Layer_1" xmlns="http://www.w3.org/2000/svg" xmlns:xlink="http://www.w3.org/1999/xlink" x="0px" y="0px"
	 width="960px" height="585.375px" viewBox="0 0 960 585.375" enable-background="new 0 0 960 585.375" xml:space="preserve">
<rect x="0" y="0" fill="#181818" width="965.5" height="604.625"/>
<rect x="-1" y="1.375" fill="#2B2A29" width="965.5" height="19.25"/>
<rect x="-1" y="49.875" fill="#2B2A29" width="965.5" height="19.25"/>
<rect x="-1" y="100.375" fill="#2B2A29" width="965.5" height="19.25"/>
<rect x="-1" y="148.875" fill="#2B2A29" width="965.5" height="19.25"/>
<rect x="-1" y="197.375" fill="#2B2A29" width="965.5" height="19.25"/>
<rect x="-1" y="245.875" fill="#2B2A29" width="965.5" height="19.25"/>
<rect x="-1" y="294.375" fill="#2B2A29" width="965.5" height="19.25"/>
<rect x="-1" y="342.875" fill="#2B2A29" width="965.5" height="19.25"/>
<rect x="-1" y="391.375" fill="#2B2A29" width="965.5" height="19.25"/>
<rect x="-1" y="439.875" fill="#2B2A29" width="965.5" height="19.25"/>
<rect x="-1" y="488.375" fill="#2B2A29" width="965.5" height="19.25"/>
<rect x="-1" y="536.875" fill="#2B2A29" width="965.5" height="19.25"/>
<rect x="-1" y="585.375" fill="#2B2A29" width="965.5" height="19.25"/>
<rect x="-1" y="623.875" fill="#2B2A29" width="965.5" height="19.25"/>
</svg>
