<?xml version="1.0" encoding="utf-8"?>
<!-- Generator: Adobe Illustrator 16.0.0, SVG Export Plug-In . SVG Version: 6.00 Build 0)  -->
<!DOCTYPE svg PUBLIC "-//W3C//DTD SVG 1.1//EN" "http://www.w3.org/Graphics/SVG/1.1/DTD/svg11.dtd">
<svg version="1.1" id="Layer_1" xmlns="http://www.w3.org/2000/svg" xmlns:xlink="http://www.w3.org/1999/xlink" x="0px" y="0px"
	 width="491.389px" height="170.918px" viewBox="0 0 491.389 170.918" enable-background="new 0 0 491.389 170.918"
	 xml:space="preserve">
<g>
	<g>
		<defs>
			<path id="SVGID_1_" d="M19.813,2.136c-9.748,0-17.678,7.931-17.678,17.679v131.29c0,9.749,7.93,17.677,17.678,17.677h451.763
				c9.747,0,17.679-7.928,17.679-17.677V19.814c0-9.748-7.932-17.679-17.679-17.679H19.813z"/>
		</defs>
		<clipPath id="SVGID_2_">
			<use xlink:href="#SVGID_1_"  overflow="visible"/>
		</clipPath>
		
			<linearGradient id="SVGID_3_" gradientUnits="userSpaceOnUse" x1="-0.0688" y1="185.6216" x2="1.3555" y2="185.6216" gradientTransform="matrix(0 86.9084 86.9084 0 -15886.4717 30.0005)">
			<stop  offset="0" style="stop-color:#58595B"/>
			<stop  offset="1" style="stop-color:#414042"/>
		</linearGradient>
		<rect x="2.136" y="2.136" clip-path="url(#SVGID_2_)" fill="url(#SVGID_3_)" width="487.119" height="166.645"/>
	</g>
	<g>
		<path fill="#414042" d="M471.575,4.273c8.583,0,15.541,6.958,15.541,15.541v131.291c0,8.582-6.958,15.541-15.541,15.541H19.813
			c-8.583,0-15.54-6.959-15.54-15.541V19.814c0-8.583,6.957-15.541,15.54-15.541H471.575 M471.575,0H19.813
			C8.888,0,0,8.888,0,19.814v131.291c0,10.925,8.889,19.813,19.813,19.813h451.762c10.927,0,19.813-8.889,19.813-19.813V19.814
			C491.389,8.888,482.502,0,471.575,0"/>
		<line fill="#58595B" x1="4.273" y1="85.459" x2="96.854" y2="85.459"/>
		
			<line fill="none" stroke="#414042" stroke-width="2" stroke-linecap="round" stroke-linejoin="round" stroke-miterlimit="10" x1="4.273" y1="85.459" x2="96.854" y2="85.459"/>
		<line fill="#58595B" x1="388.126" y1="85.459" x2="487.117" y2="85.459"/>
		
			<line fill="none" stroke="#414042" stroke-width="2" stroke-linecap="round" stroke-linejoin="round" stroke-miterlimit="10" x1="388.126" y1="85.459" x2="487.117" y2="85.459"/>
		<rect x="96.854" y="4.274" fill="#E6E6E6" width="291.272" height="162.372"/>
	</g>
</g>
<g>
	<path fill="#4D4D4E" d="M123.233,76.291h2.514v-1.289c0-1.439,0.153-2.514,0.459-3.223c0.307-0.709,0.87-1.286,1.692-1.732
		c0.821-0.445,1.861-0.668,3.118-0.668c1.289,0,2.551,0.193,3.787,0.58l-0.612,3.158c-0.72-0.172-1.413-0.258-2.079-0.258
		c-0.655,0-1.125,0.153-1.41,0.459c-0.285,0.306-0.427,0.894-0.427,1.765v1.208h3.384v3.562h-3.384v13.551h-4.528V79.852h-2.514
		V76.291z"/>
	<path fill="#4D4D4E" d="M136.205,73.97v-4.189h4.528v4.189H136.205z M136.205,93.403V76.291h4.528v17.112H136.205z"/>
	<path fill="#4D4D4E" d="M160.938,93.403h-4.528v-8.733c0-1.848-0.097-3.042-0.29-3.585s-0.508-0.965-0.942-1.266
		c-0.436-0.301-0.959-0.451-1.571-0.451c-0.784,0-1.488,0.215-2.111,0.645s-1.05,1-1.281,1.709c-0.231,0.709-0.347,2.02-0.347,3.932
		v7.75h-4.528V76.291h4.206v2.514c1.493-1.934,3.373-2.9,5.64-2.9c0.999,0,1.912,0.181,2.739,0.54s1.453,0.818,1.877,1.377
		s0.72,1.193,0.887,1.902c0.166,0.709,0.25,1.724,0.25,3.045V93.403z"/>
	<path fill="#4D4D4E" d="M181.225,93.403h-4.205v-2.514c-0.698,0.978-1.522,1.705-2.474,2.184c-0.95,0.478-1.909,0.717-2.876,0.717
		c-1.966,0-3.649-0.792-5.052-2.377c-1.401-1.584-2.103-3.795-2.103-6.631c0-2.9,0.682-5.104,2.046-6.614
		c1.364-1.509,3.088-2.264,5.172-2.264c1.912,0,3.566,0.795,4.963,2.385v-8.508h4.527V93.403z M169.14,84.476
		c0,1.826,0.252,3.147,0.757,3.964c0.73,1.182,1.751,1.772,3.062,1.772c1.042,0,1.928-0.443,2.659-1.329
		c0.73-0.887,1.096-2.211,1.096-3.973c0-1.965-0.354-3.381-1.063-4.245s-1.617-1.298-2.723-1.298c-1.074,0-1.974,0.428-2.699,1.281
		C169.503,81.503,169.14,82.779,169.14,84.476z"/>
	<path fill="#4D4D4E" d="M192.714,76.291h4.817l4.094,12.149l3.996-12.149h4.688l-6.042,16.468l-1.08,2.98
		c-0.397,1-0.776,1.762-1.136,2.289c-0.36,0.525-0.773,0.953-1.241,1.28c-0.467,0.328-1.042,0.583-1.724,0.766
		c-0.683,0.183-1.453,0.274-2.313,0.274c-0.87,0-1.724-0.092-2.562-0.274l-0.403-3.545c0.709,0.14,1.348,0.21,1.917,0.21
		c1.053,0,1.832-0.31,2.337-0.927c0.505-0.618,0.892-1.405,1.16-2.36L192.714,76.291z"/>
	<path fill="#4D4D4E" d="M212.162,84.605c0-1.504,0.37-2.96,1.112-4.366c0.74-1.408,1.791-2.482,3.149-3.223
		c1.359-0.742,2.876-1.112,4.552-1.112c2.589,0,4.711,0.841,6.365,2.521c1.654,1.682,2.481,3.806,2.481,6.373
		c0,2.589-0.835,4.734-2.506,6.438c-1.67,1.702-3.773,2.554-6.308,2.554c-1.569,0-3.064-0.354-4.488-1.063
		c-1.423-0.709-2.506-1.748-3.246-3.118C212.532,88.239,212.162,86.571,212.162,84.605z M216.803,84.846
		c0,1.697,0.403,2.998,1.208,3.9c0.807,0.902,1.8,1.354,2.981,1.354s2.173-0.451,2.973-1.354c0.801-0.902,1.2-2.213,1.2-3.932
		c0-1.676-0.399-2.965-1.2-3.867c-0.8-0.902-1.791-1.354-2.973-1.354s-2.175,0.451-2.981,1.354
		C217.206,81.85,216.803,83.149,216.803,84.846z"/>
	<path fill="#4D4D4E" d="M244.631,93.403V90.84c-0.623,0.914-1.442,1.634-2.457,2.16c-1.016,0.525-2.087,0.789-3.215,0.789
		c-1.149,0-2.181-0.253-3.094-0.758c-0.913-0.504-1.574-1.213-1.981-2.127c-0.409-0.912-0.613-2.175-0.613-3.786V76.291h4.528v7.863
		c0,2.406,0.083,3.881,0.25,4.423c0.166,0.543,0.47,0.973,0.91,1.289c0.44,0.317,0.999,0.476,1.676,0.476
		c0.773,0,1.466-0.212,2.079-0.637c0.611-0.424,1.031-0.95,1.256-1.579c0.227-0.628,0.339-2.167,0.339-4.616v-7.219h4.528v17.112
		H244.631z"/>
	<path fill="#4D4D4E" d="M257.86,93.403h-4.527V76.291h4.205v2.433c0.72-1.148,1.367-1.906,1.941-2.271
		c0.575-0.365,1.228-0.548,1.958-0.548c1.031,0,2.024,0.284,2.981,0.854l-1.402,3.947c-0.763-0.494-1.472-0.741-2.127-0.741
		c-0.634,0-1.171,0.175-1.611,0.523c-0.44,0.35-0.787,0.98-1.039,1.894c-0.253,0.913-0.379,2.825-0.379,5.736V93.403z"/>
	<path fill="#4D4D4E" d="M275.116,94.531l5.173,0.628c0.086,0.602,0.284,1.016,0.597,1.241c0.429,0.322,1.105,0.483,2.029,0.483
		c1.182,0,2.068-0.178,2.659-0.531c0.397-0.237,0.698-0.618,0.902-1.145c0.14-0.376,0.21-1.069,0.21-2.078v-2.498
		c-1.354,1.848-3.063,2.771-5.125,2.771c-2.299,0-4.119-0.972-5.462-2.916c-1.053-1.536-1.579-3.449-1.579-5.736
		c0-2.869,0.69-5.061,2.07-6.574c1.381-1.516,3.097-2.272,5.148-2.272c2.116,0,3.861,0.929,5.236,2.788v-2.401h4.238v15.356
		c0,2.019-0.167,3.528-0.5,4.527s-0.8,1.783-1.401,2.353s-1.404,1.015-2.409,1.337c-1.004,0.322-2.274,0.484-3.811,0.484
		c-2.9,0-4.958-0.497-6.172-1.491c-1.214-0.993-1.82-2.253-1.82-3.778C275.101,94.928,275.105,94.746,275.116,94.531z
		 M279.161,84.493c0,1.814,0.352,3.145,1.056,3.987c0.703,0.844,1.571,1.265,2.603,1.265c1.105,0,2.04-0.432,2.803-1.297
		c0.763-0.864,1.145-2.146,1.145-3.843c0-1.772-0.365-3.089-1.096-3.948s-1.654-1.289-2.771-1.289c-1.085,0-1.979,0.422-2.683,1.266
		C279.513,81.477,279.161,82.762,279.161,84.493z"/>
	<path fill="#4D4D4E" d="M299.077,81.511l-4.108-0.741c0.462-1.654,1.257-2.879,2.385-3.674s2.804-1.192,5.027-1.192
		c2.02,0,3.523,0.239,4.512,0.717c0.988,0.479,1.684,1.085,2.087,1.821c0.402,0.736,0.604,2.086,0.604,4.053l-0.048,5.285
		c0,1.504,0.072,2.612,0.218,3.327c0.145,0.714,0.416,1.479,0.813,2.296h-4.479c-0.118-0.301-0.264-0.746-0.436-1.338
		c-0.075-0.268-0.129-0.445-0.16-0.531c-0.773,0.752-1.602,1.316-2.482,1.691c-0.881,0.376-1.82,0.564-2.819,0.564
		c-1.762,0-3.15-0.478-4.165-1.434c-1.016-0.956-1.523-2.165-1.523-3.626c0-0.967,0.231-1.829,0.693-2.586
		c0.462-0.758,1.109-1.338,1.941-1.74c0.833-0.403,2.033-0.755,3.602-1.056c2.116-0.397,3.582-0.768,4.398-1.111v-0.451
		c0-0.871-0.215-1.491-0.645-1.861c-0.43-0.371-1.24-0.557-2.433-0.557c-0.806,0-1.435,0.159-1.886,0.476
		C299.722,80.161,299.356,80.716,299.077,81.511z M305.136,85.185c-0.58,0.193-1.498,0.425-2.755,0.692
		c-1.257,0.27-2.079,0.532-2.466,0.79c-0.591,0.419-0.886,0.95-0.886,1.595c0,0.635,0.236,1.183,0.709,1.645
		s1.074,0.692,1.805,0.692c0.816,0,1.595-0.269,2.337-0.806c0.547-0.408,0.907-0.907,1.079-1.498
		c0.118-0.387,0.177-1.123,0.177-2.208V85.185z"/>
	<path fill="#4D4D4E" d="M313.709,76.291h4.173v2.337c1.493-1.816,3.271-2.724,5.334-2.724c1.096,0,2.047,0.226,2.852,0.677
		c0.807,0.451,1.467,1.133,1.982,2.047c0.752-0.914,1.563-1.596,2.434-2.047c0.869-0.451,1.799-0.677,2.787-0.677
		c1.257,0,2.32,0.255,3.19,0.766s1.52,1.259,1.95,2.247c0.311,0.73,0.467,1.912,0.467,3.545v10.941h-4.527v-9.781
		c0-1.697-0.156-2.793-0.468-3.287c-0.419-0.645-1.063-0.967-1.934-0.967c-0.634,0-1.23,0.193-1.788,0.58
		c-0.56,0.387-0.962,0.954-1.209,1.7c-0.247,0.747-0.371,1.926-0.371,3.537v8.218h-4.527v-9.378c0-1.665-0.08-2.739-0.242-3.223
		c-0.16-0.483-0.41-0.843-0.749-1.079c-0.338-0.236-0.798-0.355-1.378-0.355c-0.698,0-1.326,0.188-1.885,0.564
		s-0.959,0.918-1.2,1.627c-0.242,0.709-0.362,1.886-0.362,3.529v8.314h-4.528V76.291z"/>
	<path fill="#4D4D4E" d="M353.299,87.957l4.512,0.757c-0.58,1.655-1.496,2.914-2.747,3.779c-1.252,0.864-2.817,1.297-4.697,1.297
		c-2.976,0-5.178-0.972-6.606-2.916c-1.128-1.558-1.692-3.523-1.692-5.898c0-2.836,0.742-5.057,2.225-6.662s3.356-2.409,5.623-2.409
		c2.546,0,4.555,0.841,6.026,2.521c1.472,1.682,2.175,4.257,2.11,7.727h-11.344c0.033,1.343,0.397,2.388,1.096,3.134
		c0.698,0.747,1.568,1.12,2.611,1.12c0.709,0,1.305-0.193,1.788-0.58S353.052,88.816,353.299,87.957z M353.557,83.38
		c-0.032-1.311-0.37-2.307-1.015-2.989c-0.645-0.682-1.43-1.023-2.354-1.023c-0.988,0-1.805,0.36-2.449,1.08
		s-0.961,1.697-0.95,2.933H353.557z"/>
</g>
</svg>
