<?xml version="1.0" encoding="utf-8"?>
<!-- Generator: Adobe Illustrator 16.0.0, SVG Export Plug-In . SVG Version: 6.00 Build 0)  -->
<!DOCTYPE svg PUBLIC "-//W3C//DTD SVG 1.1//EN" "http://www.w3.org/Graphics/SVG/1.1/DTD/svg11.dtd">
<svg version="1.1" id="Layer_1" xmlns="http://www.w3.org/2000/svg" xmlns:xlink="http://www.w3.org/1999/xlink" x="0px" y="0px"
	 width="491.389px" height="170.918px" viewBox="0 0 491.389 170.918" enable-background="new 0 0 491.389 170.918"
	 xml:space="preserve">
<g>
	<g>
		<defs>
			<path id="SVGID_1_" d="M19.813,2.136c-9.748,0-17.678,7.931-17.678,17.679v131.29c0,9.749,7.93,17.677,17.678,17.677h451.763
				c9.747,0,17.679-7.928,17.679-17.677V19.814c0-9.748-7.932-17.679-17.679-17.679H19.813z"/>
		</defs>
		<clipPath id="SVGID_2_">
			<use xlink:href="#SVGID_1_"  overflow="visible"/>
		</clipPath>
		
			<linearGradient id="SVGID_3_" gradientUnits="userSpaceOnUse" x1="-0.0688" y1="185.6216" x2="1.3555" y2="185.6216" gradientTransform="matrix(0 86.9084 86.9084 0 -15886.4717 30.0005)">
			<stop  offset="0" style="stop-color:#58595B"/>
			<stop  offset="1" style="stop-color:#414042"/>
		</linearGradient>
		<rect x="2.136" y="2.136" clip-path="url(#SVGID_2_)" fill="url(#SVGID_3_)" width="487.119" height="166.645"/>
	</g>
	<g>
		<path fill="#414042" d="M471.575,4.273c8.583,0,15.541,6.958,15.541,15.541v131.291c0,8.582-6.958,15.541-15.541,15.541H19.813
			c-8.583,0-15.54-6.959-15.54-15.541V19.814c0-8.583,6.957-15.541,15.54-15.541H471.575 M471.575,0H19.813
			C8.888,0,0,8.888,0,19.814v131.291c0,10.925,8.889,19.813,19.813,19.813h451.762c10.927,0,19.813-8.889,19.813-19.813V19.814
			C491.389,8.888,482.502,0,471.575,0"/>
		<line fill="#58595B" x1="4.273" y1="85.459" x2="96.854" y2="85.459"/>
		
			<line fill="none" stroke="#414042" stroke-width="2" stroke-linecap="round" stroke-linejoin="round" stroke-miterlimit="10" x1="4.273" y1="85.459" x2="96.854" y2="85.459"/>
		<line fill="#58595B" x1="388.126" y1="85.459" x2="487.117" y2="85.459"/>
		
			<line fill="none" stroke="#414042" stroke-width="2" stroke-linecap="round" stroke-linejoin="round" stroke-miterlimit="10" x1="388.126" y1="85.459" x2="487.117" y2="85.459"/>
		<rect x="96.854" y="4.274" fill="#723334" width="291.272" height="162.372"/>
	</g>
</g>
<g>
	<path fill="#E6E6E6" d="M136.514,95.625V72.003h12.166c2.256,0,3.98,0.193,5.172,0.58s2.154,1.104,2.884,2.151
		c0.73,1.047,1.096,2.322,1.096,3.826c0,1.311-0.279,2.441-0.838,3.393c-0.559,0.95-1.328,1.721-2.306,2.313
		c-0.623,0.375-1.478,0.688-2.563,0.934c0.87,0.291,1.503,0.582,1.9,0.871c0.268,0.193,0.657,0.607,1.167,1.242
		c0.51,0.635,0.851,1.123,1.022,1.468l3.535,6.845h-8.248l-3.902-7.219c-0.494-0.935-0.935-1.541-1.321-1.82
		c-0.526-0.365-1.123-0.549-1.789-0.549h-0.645v9.588H136.514z M143.845,81.575h3.078c0.333,0,0.978-0.107,1.934-0.322
		c0.483-0.097,0.878-0.344,1.185-0.741c0.306-0.397,0.459-0.854,0.459-1.37c0-0.762-0.242-1.348-0.725-1.756
		s-1.391-0.612-2.723-0.612h-3.207V81.575z"/>
	<path fill="#E6E6E6" d="M162.375,72.003h7.315v23.622h-7.315V72.003z"/>
	<path fill="#E6E6E6" d="M172.607,72.003h7.63l5.317,16.999l5.248-16.999h7.409l-8.771,23.622h-7.912L172.607,72.003z"/>
	<path fill="#E6E6E6" d="M200.58,72.003h19.563v5.044h-12.246v3.754h11.359v4.818h-11.359v4.656h12.6v5.35H200.58V72.003z"/>
	<path fill="#E6E6E6" d="M224.524,95.625V72.003h12.166c2.256,0,3.979,0.193,5.172,0.58s2.153,1.104,2.885,2.151
		c0.729,1.047,1.096,2.322,1.096,3.826c0,1.311-0.28,2.441-0.839,3.393c-0.559,0.95-1.327,1.721-2.306,2.313
		c-0.623,0.375-1.478,0.688-2.563,0.934c0.869,0.291,1.503,0.582,1.9,0.871c0.269,0.193,0.657,0.607,1.167,1.242
		s0.851,1.123,1.022,1.468l3.535,6.845h-8.248l-3.901-7.219c-0.494-0.935-0.935-1.541-1.321-1.82
		c-0.526-0.365-1.123-0.549-1.788-0.549h-0.645v9.588H224.524z M231.856,81.575h3.077c0.333,0,0.978-0.107,1.934-0.322
		c0.483-0.097,0.878-0.344,1.185-0.741c0.306-0.397,0.459-0.854,0.459-1.37c0-0.762-0.242-1.348-0.725-1.756
		c-0.484-0.408-1.392-0.612-2.724-0.612h-3.206V81.575z"/>
	<path fill="#E6E6E6" d="M261.198,95.625V72.003h12.166c2.256,0,3.979,0.193,5.172,0.58s2.153,1.104,2.885,2.151
		c0.729,1.047,1.096,2.322,1.096,3.826c0,1.311-0.28,2.441-0.839,3.393c-0.559,0.95-1.327,1.721-2.306,2.313
		c-0.623,0.375-1.478,0.688-2.563,0.934c0.869,0.291,1.503,0.582,1.9,0.871c0.269,0.193,0.657,0.607,1.167,1.242
		s0.851,1.123,1.022,1.468l3.535,6.845h-8.248l-3.901-7.219c-0.494-0.935-0.935-1.541-1.321-1.82
		c-0.526-0.365-1.123-0.549-1.788-0.549h-0.645v9.588H261.198z M268.53,81.575h3.077c0.333,0,0.978-0.107,1.934-0.322
		c0.483-0.097,0.878-0.344,1.185-0.741c0.306-0.397,0.459-0.854,0.459-1.37c0-0.762-0.242-1.348-0.725-1.756
		c-0.484-0.408-1.392-0.612-2.724-0.612h-3.206V81.575z"/>
	<path fill="#E6E6E6" d="M301.293,91.726h-8.287l-1.151,3.899h-7.452l8.878-23.622h7.962l8.877,23.622h-7.645L301.293,91.726z
		 M299.779,86.618l-2.607-8.491l-2.58,8.491H299.779z"/>
	<path fill="#E6E6E6" d="M312.729,72.003h7.315v23.622h-7.315V72.003z"/>
	<path fill="#E6E6E6" d="M325.377,72.003h10.844c2.138,0,3.865,0.29,5.181,0.87c1.316,0.58,2.403,1.412,3.263,2.498
		c0.859,1.084,1.482,2.347,1.869,3.786s0.58,2.965,0.58,4.576c0,2.524-0.287,4.482-0.861,5.873
		c-0.575,1.392-1.373,2.557-2.393,3.497c-1.021,0.939-2.117,1.565-3.287,1.877c-1.602,0.43-3.052,0.645-4.352,0.645h-10.844V72.003z
		 M332.676,77.353V90.26h1.789c1.525,0,2.61-0.17,3.255-0.508c0.645-0.339,1.149-0.93,1.515-1.772s0.548-2.21,0.548-4.101
		c0-2.504-0.408-4.217-1.225-5.141s-2.17-1.386-4.061-1.386H332.676z"/>
</g>
</svg>
