<?xml version="1.0" encoding="utf-8"?>
<!-- Generator: Adobe Illustrator 16.0.0, SVG Export Plug-In . SVG Version: 6.00 Build 0)  -->
<!DOCTYPE svg PUBLIC "-//W3C//DTD SVG 1.1//EN" "http://www.w3.org/Graphics/SVG/1.1/DTD/svg11.dtd">
<svg version="1.1" id="Layer_1" xmlns="http://www.w3.org/2000/svg" xmlns:xlink="http://www.w3.org/1999/xlink" x="0px" y="0px"
	 width="491.389px" height="170.918px" viewBox="0 0 491.389 170.918" enable-background="new 0 0 491.389 170.918"
	 xml:space="preserve">
<g>
	<g>
		<defs>
			<path id="SVGID_1_" d="M19.813,2.136c-9.748,0-17.678,7.931-17.678,17.679v131.29c0,9.749,7.93,17.677,17.678,17.677h451.763
				c9.747,0,17.679-7.928,17.679-17.677V19.814c0-9.748-7.932-17.679-17.679-17.679H19.813z"/>
		</defs>
		<clipPath id="SVGID_2_">
			<use xlink:href="#SVGID_1_"  overflow="visible"/>
		</clipPath>
		
			<linearGradient id="SVGID_3_" gradientUnits="userSpaceOnUse" x1="-0.0688" y1="185.6216" x2="1.3555" y2="185.6216" gradientTransform="matrix(0 86.9084 86.9084 0 -15886.4717 30.0005)">
			<stop  offset="0" style="stop-color:#58595B"/>
			<stop  offset="1" style="stop-color:#414042"/>
		</linearGradient>
		<rect x="2.136" y="2.136" clip-path="url(#SVGID_2_)" fill="url(#SVGID_3_)" width="487.119" height="166.645"/>
	</g>
	<g>
		<path fill="#414042" d="M471.575,4.273c8.583,0,15.541,6.958,15.541,15.541v131.291c0,8.582-6.958,15.541-15.541,15.541H19.813
			c-8.583,0-15.54-6.959-15.54-15.541V19.814c0-8.583,6.957-15.541,15.54-15.541H471.575 M471.575,0H19.813
			C8.888,0,0,8.888,0,19.814v131.291c0,10.925,8.889,19.813,19.813,19.813h451.762c10.927,0,19.813-8.889,19.813-19.813V19.814
			C491.389,8.888,482.502,0,471.575,0"/>
		<line fill="#58595B" x1="4.273" y1="85.459" x2="96.854" y2="85.459"/>
		
			<line fill="none" stroke="#414042" stroke-width="2" stroke-linecap="round" stroke-linejoin="round" stroke-miterlimit="10" x1="4.273" y1="85.459" x2="96.854" y2="85.459"/>
		<line fill="#58595B" x1="388.126" y1="85.459" x2="487.117" y2="85.459"/>
		
			<line fill="none" stroke="#414042" stroke-width="2" stroke-linecap="round" stroke-linejoin="round" stroke-miterlimit="10" x1="388.126" y1="85.459" x2="487.117" y2="85.459"/>
		<rect x="96.854" y="4.274" fill="#343F75" width="291.272" height="162.372"/>
	</g>
</g>
<g>
	<path fill="#CCCCCC" d="M112.401,72.003h19.562v5.044h-12.246v3.754h11.36v4.818h-11.36v4.656h12.601v5.35h-19.916V72.003z"/>
	<path fill="#CCCCCC" d="M135.83,89.051h7.009v6.574h-7.009V89.051z"/>
	<path fill="#CCCCCC" d="M145.578,72.003h22.188v5.833h-7.444v17.789h-7.299V77.836h-7.444V72.003z"/>
	<path fill="#CCCCCC" d="M180.416,72.003h22.188v5.833h-7.444v17.789h-7.3V77.836h-7.443V72.003z"/>
	<path fill="#CCCCCC" d="M205.938,72.003h7.299v8.267h7.977v-8.267h7.332v23.622h-7.332v-9.555h-7.977v9.555h-7.299V72.003z"/>
	<path fill="#CCCCCC" d="M233.379,72.003h19.563v5.044h-12.246v3.754h11.359v4.818h-11.359v4.656h12.6v5.35h-19.916V72.003z"/>
	<path fill="#CCCCCC" d="M280.108,87.069v-4.914h11.279v10.07c-2.16,1.473-4.069,2.474-5.729,3.006
		c-1.66,0.531-3.629,0.797-5.906,0.797c-2.803,0-5.089-0.478-6.855-1.434c-1.768-0.956-3.137-2.379-4.109-4.27
		c-0.972-1.891-1.458-4.061-1.458-6.51c0-2.578,0.532-4.82,1.595-6.728c1.064-1.907,2.621-3.354,4.674-4.343
		c1.6-0.763,3.754-1.144,6.461-1.144c2.61,0,4.563,0.236,5.857,0.709c1.294,0.473,2.368,1.206,3.223,2.2
		c0.854,0.993,1.495,2.253,1.926,3.778l-7.042,1.257c-0.29-0.892-0.781-1.573-1.475-2.046c-0.692-0.473-1.576-0.709-2.65-0.709
		c-1.601,0-2.876,0.556-3.827,1.667c-0.95,1.112-1.426,2.871-1.426,5.277c0,2.557,0.48,4.383,1.442,5.479
		c0.961,1.096,2.301,1.644,4.021,1.644c0.815,0,1.595-0.118,2.336-0.354s1.59-0.64,2.546-1.208v-2.225H280.108z"/>
	<path fill="#CCCCCC" d="M310.244,91.726h-8.287l-1.151,3.899h-7.452l8.878-23.622h7.962l8.877,23.622h-7.645L310.244,91.726z
		 M308.73,86.618l-2.607-8.491l-2.58,8.491H308.73z"/>
	<path fill="#CCCCCC" d="M321.309,72.003h9.6l3.702,14.373l3.676-14.373h9.594v23.622h-5.978V77.611l-4.606,18.015h-5.411
		l-4.598-18.015v18.015h-5.979V72.003z"/>
	<path fill="#CCCCCC" d="M352.521,72.003h19.563v5.044h-12.246v3.754h11.359v4.818h-11.359v4.656h12.6v5.35h-19.916V72.003z"/>
</g>
</svg>
