<?xml version="1.0" encoding="utf-8"?>
<!-- Generator: Adobe Illustrator 16.0.0, SVG Export Plug-In . SVG Version: 6.00 Build 0)  -->
<!DOCTYPE svg PUBLIC "-//W3C//DTD SVG 1.1//EN" "http://www.w3.org/Graphics/SVG/1.1/DTD/svg11.dtd">
<svg version="1.1" xmlns="http://www.w3.org/2000/svg" xmlns:xlink="http://www.w3.org/1999/xlink" x="0px" y="0px" width="459px"
	 height="457px" viewBox="0 0 459 457" enable-background="new 0 0 459 457" xml:space="preserve">
<g id="Layer_1">
	
		<g id="Layer_1_1_" xmlns:sodipodi="http://sodipodi.sourceforge.net/DTD/sodipodi-0.dtd" xmlns:inkscape="http://www.inkscape.org/namespaces/inkscape" xmlns:cc="http://creativecommons.org/ns#" xmlns:dc="http://purl.org/dc/elements/1.1/" xmlns:rdf="http://www.w3.org/1999/02/22-rdf-syntax-ns#" xmlns:svg="http://www.w3.org/2000/svg">
		<g id="XMLID_1_">
			<g>
				<path fill="#2B2A29" d="M5.5,432.92V24.079C5.5,13.229,14.231,4.5,25.08,4.5h408.84c10.851,0,19.58,8.729,19.58,19.579V432.92
					c0,10.85-8.729,19.58-19.58,19.58H25.08C14.231,452.5,5.5,443.769,5.5,432.92z M24.93,23.55
					c-17.38,17.38-18.851,44.09-3.279,59.649c1.13,1.109,2.34,2.141,3.609,3.09c0.59,0.931,1.279,1.801,2.069,2.601L80.01,141.57
					c0.859,0.851,1.811,1.58,2.811,2.189c-16.03,26.479-24.54,56.83-24.609,87.78c0,94.04,76.229,170.279,170.279,170.279
					c47.021,0,89.59-19.06,120.41-49.88c30.81-30.81,49.87-73.38,49.87-120.399c0-94.041-76.24-170.28-170.28-170.28
					c-28.92,0.069-57.351,7.5-82.601,21.59c-0.71-1.529-1.689-2.96-2.949-4.22L90.26,25.959c-0.779-0.789-1.641-1.47-2.54-2.039
					c-0.97-1.29-2.01-2.511-3.141-3.65C69.011,4.699,42.31,6.17,24.93,23.55z"/>
				<path fill="#050304" d="M21.651,83.199C6.08,67.638,7.55,40.928,24.93,23.55s44.08-18.851,59.649-3.28
					c1.131,1.141,2.171,2.36,3.141,3.65c0.899,0.569,1.761,1.25,2.54,2.04l52.681,52.67c1.26,1.26,2.239,2.689,2.949,4.22
					c25.25-14.09,53.681-21.521,82.601-21.59c94.04,0,170.28,76.24,170.28,170.28c0,47.02-19.061,89.59-49.87,120.399
					c-30.82,30.82-73.39,49.88-120.41,49.88c-94.05,0-170.279-76.239-170.279-170.279c0.069-30.95,8.58-61.301,24.609-87.78
					c-1-0.609-1.95-1.34-2.811-2.189L27.33,88.889c-0.79-0.8-1.48-1.67-2.07-2.601C23.99,85.34,22.781,84.309,21.651,83.199z
					 M19.25,57.289c0,21.37,17.32,38.7,38.7,38.7c21.37,0,38.7-17.33,38.7-38.7c0-21.38-17.33-38.71-38.7-38.71
					C36.571,18.579,19.25,35.909,19.25,57.289z M63.89,227.95h10.04c0.2-7.98,1.021-15.932,2.46-23.791l-9.75-2.609
					C65.02,210.26,64.1,219.09,63.89,227.95z M74.08,242.279H64.041c0.619,9.301,2.029,18.521,4.21,27.57l9.689-2.6
					C75.97,259.05,74.68,250.7,74.08,242.279z M69.981,187.61l9.68,2.59c2.28-8.021,5.189-15.84,8.721-23.391l-8.7-5.021
					C75.731,170.11,72.49,178.75,69.981,187.61z M81.841,281.05l-9.689,2.6c2.819,8.69,6.359,17.13,10.58,25.23l8.68-5.01
					C87.62,296.529,84.421,288.899,81.841,281.05z M86.341,149.079l8.689,5.021c4.91-8.439,10.62-16.391,17.029-23.75l-7.09-7.09
					C97.95,131.239,91.711,139.889,86.341,149.079z M98.591,316.279l-8.721,5.03c4.86,7.44,10.32,14.48,16.311,21.04l7.101-7.1
					C107.901,329.309,102.99,322.969,98.591,316.279z M114.861,112.869l7.101,7.101c5.96-5.62,12.359-10.76,19.14-15.37l-5.04-8.72
					C128.54,100.949,121.45,106.63,114.861,112.869z M123.33,345.469l-7.1,7.09c7.72,7.2,16.109,13.641,25.061,19.23l5.01-8.681
					C138.111,357.96,130.421,352.059,123.33,345.469z M80.5,231.54c0.011,81.729,66.261,147.979,147.99,147.979
					c81.72,0,147.98-66.25,147.98-147.979c0-81.73-66.261-147.98-147.98-147.98c-40.87,0-77.859,16.561-104.641,43.341
					C97.06,153.679,80.5,190.679,80.5,231.54z M148.29,88.389l5.011,8.681c7.46-4.16,15.25-7.7,23.29-10.58l-2.601-9.689
					C165.111,79.92,156.511,83.8,148.29,88.389z M158.77,370.179l-5.021,8.7c8.221,4.24,16.78,7.78,25.591,10.59l2.601-9.72
					C173.97,377.189,166.22,373.989,158.77,370.179z M187.7,72.59l2.601,9.689c9.699-2.5,19.62-4.04,29.62-4.62v-10.04
					C209.041,68.21,198.25,69.869,187.7,72.59z M195.81,383.38l-2.6,9.68c8.8,1.9,17.729,3.07,26.71,3.51V386.54
					C211.821,386.12,203.75,385.069,195.81,383.38z M234.261,67.61v10.029c9.319,0.32,18.59,1.49,27.7,3.479l2.59-9.68
					C254.601,69.23,244.45,67.94,234.261,67.61z M234.261,386.769v10.03c8.3-0.29,16.569-1.21,24.739-2.74l-2.6-9.689
					C249.091,385.7,241.691,386.5,234.261,386.769z M270.391,381.179l2.59,9.7c9.41-2.68,18.56-6.18,27.35-10.48l-5.04-8.729
					C287.281,375.55,278.95,378.729,270.391,381.179z M278.41,75.11l-2.6,9.72c8.64,2.78,17.029,6.311,25.06,10.57l5.021-8.71
					C297.101,82.01,287.901,78.13,278.41,75.11z M307.92,364.87l5.011,8.68c8.68-5.2,16.869-11.18,24.46-17.88l-7.101-7.101
					C323.33,354.66,315.84,360.12,307.92,364.87z M318.21,94.03l-5.02,8.681c6.49,4.26,12.66,9,18.439,14.189l7.091-7.091
					C332.3,104.019,325.45,98.739,318.21,94.03z M340.63,338.649l7.101,7.09c5.939-6.159,11.39-12.779,16.3-19.779l-8.75-5.05
					C350.851,327.17,345.95,333.109,340.63,338.649z M348.981,119.82l-7.11,7.101c6.45,6.899,12.26,14.38,17.34,22.33l8.681-5.011
					C362.37,135.53,356.031,127.349,348.981,119.82z M362.92,308.76l8.681,5.02c4.93-8.68,9.05-17.79,12.33-27.21l-9.721-2.609
					C371.181,292.55,367.41,300.849,362.92,308.76z M375.021,156.679l-8.67,5.011c4.14,8.199,7.55,16.75,10.18,25.56l9.69-2.6
					C383.351,175,379.601,165.639,375.021,156.679z M378.38,270.239l9.681,2.601c2.55-10.01,4.16-20.24,4.8-30.561h-10.03
					C382.2,251.719,380.71,261.08,378.38,270.239z M389.71,198.55l-9.68,2.601c1.83,8.819,2.88,17.79,3.15,26.801h10.04
					C392.931,218.07,391.761,208.23,389.71,198.55z"/>
				<path fill="#FE2B14" d="M57.95,95.989c-21.38,0-38.7-17.33-38.7-38.7c0-21.38,17.32-38.71,38.7-38.71
					c21.37,0,38.7,17.33,38.7,38.71C96.651,78.659,79.321,95.989,57.95,95.989z"/>
				<path fill="#BC760F" d="M73.93,227.95H63.89c0.21-8.86,1.13-17.69,2.75-26.4l9.75,2.609
					C74.95,212.019,74.131,219.969,73.93,227.95z"/>
				<path fill="#BC760F" d="M64.04,242.279h10.04c0.601,8.421,1.891,16.771,3.86,24.971l-9.69,2.6
					C66.071,260.8,64.66,251.58,64.04,242.279z"/>
				<path fill="#BC760F" d="M79.66,190.199l-9.68-2.59c2.51-8.859,5.75-17.5,9.699-25.82l8.7,5.021
					C84.85,174.36,81.941,182.179,79.66,190.199z"/>
				<path fill="#BC760F" d="M72.151,283.649l9.689-2.6c2.58,7.85,5.779,15.479,9.569,22.82l-8.68,5.01
					C78.511,300.779,74.97,292.34,72.151,283.649z"/>
				<path fill="#BC760F" d="M95.031,154.099l-8.689-5.021c5.37-9.189,11.609-17.84,18.63-25.819l7.09,7.09
					C105.651,137.71,99.941,145.659,95.031,154.099z"/>
				<path fill="#BC760F" d="M89.87,321.309l8.721-5.03c4.399,6.69,9.311,13.03,14.689,18.971l-7.101,7.1
					C100.191,335.79,94.731,328.75,89.87,321.309z"/>
				<path fill="#BC760F" d="M121.961,119.969l-7.101-7.101c6.59-6.239,13.681-11.92,21.199-16.989l5.04,8.72
					C134.321,109.21,127.921,114.349,121.961,119.969z"/>
				<path fill="#BC760F" d="M116.231,352.559l7.1-7.09c7.091,6.59,14.78,12.49,22.971,17.64l-5.011,8.681
					C132.341,366.2,123.95,359.76,116.231,352.559z"/>
				<path fill="#191919" d="M228.49,379.519c-81.729,0-147.979-66.25-147.99-147.979c0-40.86,16.561-77.86,43.351-104.641
					c26.78-26.78,63.771-43.341,104.641-43.341c81.72,0,147.98,66.25,147.98,147.98C376.471,313.269,310.21,379.519,228.49,379.519z
					 M118.151,231.45c0,60.56,49.1,109.649,109.659,109.649c30.28,0,57.69-12.27,77.529-32.12
					c19.851-19.84,32.12-47.25,32.12-77.529c0-30.291-12.27-57.7-32.12-77.541c-19.839-19.851-47.249-32.12-77.529-32.12
					c-30.279,0-57.689,12.271-77.54,32.12C130.421,173.75,118.151,201.159,118.151,231.45z"/>
				<path fill="#BC760F" d="M153.301,97.07l-5.011-8.681c8.221-4.59,16.82-8.47,25.7-11.59l2.601,9.689
					C168.551,89.369,160.761,92.909,153.301,97.07z"/>
				<path fill="#050304" d="M227.81,341.099c-60.561,0-109.659-49.09-109.659-109.649c0-30.291,12.271-57.7,32.119-77.541
					c19.851-19.851,47.261-32.12,77.54-32.12c30.28,0,57.69,12.271,77.529,32.12c19.851,19.841,32.12,47.25,32.12,77.541
					c0,30.279-12.27,57.689-32.12,77.529C285.5,328.83,258.091,341.099,227.81,341.099z M129.62,232.16
					c0,53.84,43.641,97.47,97.471,97.47s97.47-43.63,97.47-97.47c0-53.831-43.64-97.471-97.47-97.471S129.62,178.329,129.62,232.16z
					"/>
				<path fill="#BC760F" d="M153.75,378.88l5.021-8.7c7.45,3.81,15.2,7.01,23.171,9.57l-2.601,9.72
					C170.531,386.66,161.97,383.12,153.75,378.88z"/>
				<path fill="#2B2A29" d="M227.091,329.63c-53.83,0-97.471-43.63-97.471-97.47c0-53.831,43.641-97.471,97.471-97.471
					s97.47,43.64,97.47,97.471C324.561,286,280.921,329.63,227.091,329.63z M142.52,232.16c0,46.71,37.86,84.569,84.57,84.569
					c23.35,0,44.5-9.47,59.8-24.77c15.31-15.3,24.77-36.44,24.77-59.8c0-46.7-37.859-84.57-84.569-84.57
					S142.52,185.46,142.52,232.16z"/>
				<path fill="#050304" d="M227.091,316.729c-46.71,0-84.57-37.859-84.57-84.569c0-46.7,37.86-84.57,84.57-84.57
					s84.569,37.87,84.569,84.57c0,23.359-9.46,44.5-24.77,59.8C271.591,307.26,250.441,316.729,227.091,316.729z M152.551,232.16
					c0,20.579,8.351,39.22,21.83,52.71c13.5,13.489,32.13,21.83,52.71,21.83c41.17,0,74.539-33.37,74.539-74.54
					c0-41.16-33.369-74.541-74.539-74.541c-20.591,0-39.221,8.341-52.71,21.841C160.89,192.94,152.551,211.579,152.551,232.16z"/>
				<path fill="#2B2A29" d="M174.381,284.87c-13.479-13.49-21.83-32.131-21.83-52.71c0-20.581,8.34-39.221,21.83-52.7
					c13.489-13.5,32.119-21.841,52.71-21.841c41.17,0,74.539,33.381,74.539,74.541c0,41.17-33.369,74.54-74.539,74.54
					C206.511,306.7,187.881,298.359,174.381,284.87z M164.02,232.16c0,34.84,28.24,63.069,63.07,63.069
					c17.41,0,33.18-7.06,44.6-18.47c11.41-11.41,18.47-27.18,18.47-44.6c0-17.421-7.06-33.181-18.47-44.602
					c-11.42-11.409-27.189-18.47-44.6-18.47C192.261,169.09,164.02,197.329,164.02,232.16z"/>
				<path fill="#050304" d="M227.091,295.229c-34.83,0-63.07-28.229-63.07-63.069c0-34.831,28.24-63.07,63.07-63.07
					c17.409,0,33.18,7.061,44.6,18.47c11.41,11.421,18.47,27.181,18.47,44.602c0,17.42-7.06,33.189-18.47,44.6
					C260.271,288.17,244.5,295.229,227.091,295.229z M172.62,232.16c0,30.09,24.391,54.47,54.471,54.47s54.47-24.38,54.47-54.47
					c0-15.041-6.1-28.66-15.96-38.521c-9.851-9.851-23.47-15.949-38.51-15.949s-28.66,6.1-38.511,15.949
					C178.72,203.5,172.62,217.119,172.62,232.16z"/>
				<polygon fill="#050304" points="204.981,270.67 182.881,232.38 204.981,194.09 249.2,194.09 271.301,232.38 249.2,270.67 				
					"/>
				<path fill="#2B2A29" d="M227.091,286.63c-30.08,0-54.471-24.38-54.471-54.47c0-15.041,6.101-28.66,15.96-38.521
					c9.851-9.851,23.471-15.949,38.511-15.949s28.659,6.1,38.51,15.949c9.86,9.859,15.96,23.479,15.96,38.521
					C281.561,262.25,257.171,286.63,227.091,286.63z M182.881,232.38l22.101,38.29H249.2l22.101-38.29L249.2,194.09h-44.22
					L182.881,232.38z"/>
				<path fill="#BC760F" d="M190.301,82.28l-2.601-9.689c10.55-2.721,21.341-4.38,32.221-4.971v10.04
					C209.921,78.239,200,79.78,190.301,82.28z"/>
				<path fill="#BC760F" d="M193.211,393.059l2.6-9.68c7.939,1.689,16.011,2.74,24.11,3.16v10.029
					C210.941,396.13,202.011,394.96,193.211,393.059z"/>
				<path fill="#BC760F" d="M234.261,77.639V67.61c10.189,0.33,20.34,1.62,30.29,3.83l-2.59,9.68
					C252.851,79.13,243.58,77.96,234.261,77.639z"/>
				<path fill="#BC760F" d="M234.261,396.8v-10.03c7.43-0.27,14.83-1.069,22.14-2.399l2.601,9.689
					C250.83,395.59,242.561,396.51,234.261,396.8z"/>
				<path fill="#BC760F" d="M272.981,390.88l-2.59-9.7c8.56-2.45,16.89-5.63,24.899-9.51l5.04,8.729
					C291.54,384.7,282.391,388.2,272.981,390.88z"/>
				<path fill="#BC760F" d="M275.811,84.829l2.6-9.72c9.49,3.021,18.69,6.899,27.48,11.58l-5.021,8.71
					C292.84,91.139,284.45,87.61,275.811,84.829z"/>
				<path fill="#BC760F" d="M312.931,373.55l-5.011-8.68c7.92-4.75,15.41-10.21,22.37-16.301l7.101,7.101
					C329.8,362.37,321.611,368.349,312.931,373.55z"/>
				<path fill="#BC760F" d="M313.191,102.71l5.02-8.681c7.24,4.71,14.09,9.989,20.511,15.779l-7.091,7.091
					C325.851,111.71,319.681,106.969,313.191,102.71z"/>
				<path fill="#BC760F" d="M347.731,345.739l-7.101-7.09c5.32-5.54,10.221-11.479,14.65-17.739l8.75,5.05
					C359.12,332.96,353.67,339.58,347.731,345.739z"/>
				<path fill="#BC760F" d="M341.87,126.92l7.11-7.101c7.05,7.529,13.39,15.71,18.91,24.42l-8.681,5.011
					C354.13,141.3,348.321,133.82,341.87,126.92z"/>
				<path fill="#BC760F" d="M371.601,313.779l-8.681-5.02c4.49-7.91,8.261-16.21,11.29-24.8l9.721,2.609
					C380.651,295.989,376.531,305.099,371.601,313.779z"/>
				<path fill="#BC760F" d="M366.351,161.69l8.67-5.011c4.58,8.96,8.33,18.32,11.2,27.971l-9.69,2.601
					C373.901,178.44,370.49,169.889,366.351,161.69z"/>
				<path fill="#BC760F" d="M388.061,272.84l-9.681-2.601c2.33-9.159,3.82-18.52,4.45-27.96h10.03
					C392.221,252.599,390.611,262.83,388.061,272.84z"/>
				<path fill="#BC760F" d="M380.031,201.15l9.68-2.601c2.05,9.681,3.221,19.521,3.511,29.4h-10.04
					C382.91,218.94,381.861,209.969,380.031,201.15z"/>
			</g>
		</g>
	</g>
	<g id="Layer_2">
		<circle fill="#FE2B14" stroke="#050304" stroke-width="6" stroke-miterlimit="10" cx="-107.423" cy="228.5" r="53.21"/>
		<path fill="#191919" stroke="#050304" stroke-width="6" stroke-miterlimit="10" d="M-356.778,205.265h-34.271v-34.271
			c0-6.627-5.373-12-12-12h-22.471c-6.627,0-12,5.373-12,12v34.271h-34.269c-6.627,0-12,5.373-12,12v22.469c0,6.629,5.373,12,12,12
			h34.269v34.271c0,6.627,5.373,12,12,12h22.472c6.627,0,12-5.373,12-12v-34.271h34.271c6.627,0,12-5.371,12-12v-22.469
			C-344.778,210.637-350.15,205.265-356.778,205.265z"/>
	</g>
</g>
<g id="Layer_2_1_" display="none">
	<path display="inline" d="M233.448,0c36.735,0,73.023,0,109.76,0c18.368,0,35.84,4.48,51.072,14.784
		c21.951,14.784,35.392,34.944,39.424,60.928c4.031,24.641-1.345,47.04-16.128,67.2c-15.232,20.608-35.393,33.152-60.929,36.288
		c-33.6,4.032-61.376-7.616-82.88-34.048c-0.448-0.448-1.792-1.344-2.24-1.344c-25.088,0-50.176,0-75.712,0
		c-0.896,0-1.792,0.447-2.688,1.344c-14.784,18.816-34.048,30.464-57.792,34.048c-30.016,4.032-56.448-4.479-77.952-26.432
		c-14.336-14.337-22.399-31.809-24.64-51.521c-3.584-29.568,5.824-55.552,27.328-76.16C77.992,8.064,99.496,0,124.136,0
		C160.424,0,196.712,0,233.448,0z M103.976,72.128c-0.896,0-1.344,0-2.239,0c-8.064,0-15.681,0-23.744,0
		c-6.272,0-9.856,3.584-9.856,9.856c0,5.376,0,10.752,0,16.128c0,6.271,3.584,9.855,9.856,9.855c8.063,0,16.128,0,24.191,0
		c0.448,0,1.345,0,2.24,0c0,0.896,0,1.792,0,2.24c0,8.064,0,16.128,0,24.192c0,5.376,3.584,9.408,9.408,9.408s11.2,0,17.024,0
		c5.823,0,9.855-3.585,9.855-9.856c0-8.064,0-16.128,0-24.192c0-0.447,0-1.344,0-2.239c0.896,0,1.792,0,2.24,0
		c8.063,0,16.128,0,24.191,0c5.824,0,9.408-3.584,9.408-9.408c0-5.376,0-11.2,0-16.576c0-6.272-3.584-9.856-9.855-9.856
		c-8.064,0-16.128,0-24.192,0c-0.448,0-1.344,0-2.24,0c0-0.896,0-1.344,0-2.239c0-8.064,0-16.128,0-24.192
		c0-6.271-3.584-9.855-9.407-9.855c-5.824,0-11.2,0-17.024,0s-9.408,3.584-9.408,9.855c0,8.064,0,16.128,0,24.192
		C103.976,70.336,103.976,71.232,103.976,72.128z M327.08,125.887c0,9.856,8.063,17.921,17.92,17.921
		c9.855,0,18.368-8.064,18.368-17.921c0-9.855-8.064-17.92-17.92-17.92C335.144,107.968,327.08,116.032,327.08,125.887z
		 M290.792,90.048c0,9.856,7.615,17.92,17.472,18.368c9.856,0,18.368-7.616,18.368-17.92c0-9.856-7.616-17.92-17.472-17.92
		C299.304,71.679,291.24,79.744,290.792,90.048z M380.84,72.128c-9.856,0-17.92,8.064-17.92,17.92c0,9.856,8.063,17.92,17.92,17.92
		c9.855,0,17.92-8.063,17.92-17.92C398.76,80.192,390.696,72.128,380.84,72.128z M327.08,54.208c0,9.856,8.063,17.92,17.92,17.92
		c9.855,0,18.368-8.063,17.92-17.92c0-9.855-8.064-17.92-17.92-17.92C334.696,36.288,327.08,43.904,327.08,54.208z"/>
</g>
<g id="Layer_3" display="none">
	<g display="inline">
		<path d="M249.66,201.599v-84.152c23.476-8.31,40.32-30.643,40.32-56.967C289.981,27.077,262.907,0,229.5,0
			c-33.398,0-60.479,27.077-60.479,60.48c0,26.319,16.849,48.652,40.319,56.963v84.156H88.381V322.56H370.62V201.599H249.66z
			 M148.861,282.24c-11.137,0-20.16-9.027-20.16-20.16s9.023-20.16,20.16-20.16c11.128,0,20.16,9.027,20.16,20.16
			S159.989,282.24,148.861,282.24z"/>
	</g>
</g>
</svg>
