<?xml version="1.0" encoding="utf-8"?>
<!-- Generator: Adobe Illustrator 16.0.0, SVG Export Plug-In . SVG Version: 6.00 Build 0)  -->
<!DOCTYPE svg PUBLIC "-//W3C//DTD SVG 1.1//EN" "http://www.w3.org/Graphics/SVG/1.1/DTD/svg11.dtd">
<svg version="1.1" id="Layer_1" xmlns="http://www.w3.org/2000/svg" xmlns:xlink="http://www.w3.org/1999/xlink" x="0px" y="0px"
	 width="459px" height="457px" viewBox="0 0 459 457" enable-background="new 0 0 459 457" xml:space="preserve">
<g id="Layer_1_1_" xmlns:sodipodi="http://sodipodi.sourceforge.net/DTD/sodipodi-0.dtd" xmlns:inkscape="http://www.inkscape.org/namespaces/inkscape" xmlns:cc="http://creativecommons.org/ns#" xmlns:dc="http://purl.org/dc/elements/1.1/" xmlns:rdf="http://www.w3.org/1999/02/22-rdf-syntax-ns#" xmlns:svg="http://www.w3.org/2000/svg">
	<g id="XMLID_1_">
		<g>
			<path fill="#2B2A29" d="M1005.5,118.045v408.841c0,10.85-8.73,19.579-19.58,19.579H577.08c-10.851,0-19.58-8.729-19.58-19.579
				V118.045c0-10.85,8.729-19.58,19.58-19.58h408.84C996.77,98.465,1005.5,107.195,1005.5,118.045z M986.071,527.415
				c17.38-17.38,18.851-44.09,3.279-59.649c-1.13-1.109-2.34-2.141-3.609-3.09c-0.59-0.931-1.279-1.801-2.069-2.601l-52.681-52.681
				c-0.859-0.851-1.811-1.58-2.811-2.189c16.03-26.479,24.54-56.83,24.609-87.78c0-94.04-76.229-170.279-170.279-170.279
				c-47.021,0-89.59,19.06-120.41,49.88c-30.81,30.81-49.87,73.38-49.87,120.399c0,94.041,76.24,170.28,170.28,170.28
				c28.92-0.069,57.351-7.5,82.601-21.59c0.71,1.529,1.689,2.96,2.949,4.22l52.681,52.671c0.779,0.789,1.641,1.47,2.54,2.039
				c0.97,1.29,2.01,2.511,3.141,3.65C941.99,546.265,968.691,544.795,986.071,527.415z"/>
			<path fill="#050304" d="M989.35,467.765c15.57,15.561,14.101,42.271-3.279,59.649s-44.08,18.851-59.649,3.28
				c-1.131-1.141-2.171-2.36-3.141-3.65c-0.899-0.569-1.761-1.25-2.54-2.04l-52.681-52.67c-1.26-1.26-2.239-2.689-2.949-4.22
				c-25.25,14.09-53.681,21.521-82.601,21.59c-94.04,0-170.28-76.24-170.28-170.28c0-47.02,19.061-89.59,49.87-120.399
				c30.82-30.82,73.39-49.88,120.41-49.88c94.05,0,170.279,76.239,170.279,170.279c-0.069,30.95-8.58,61.301-24.609,87.78
				c1,0.609,1.95,1.34,2.811,2.189l52.68,52.681c0.79,0.8,1.48,1.67,2.07,2.601C987.01,465.625,988.22,466.655,989.35,467.765z
				 M991.75,493.676c0-21.37-17.32-38.7-38.7-38.7c-21.37,0-38.7,17.33-38.7,38.7c0,21.38,17.33,38.71,38.7,38.71
				C974.43,532.385,991.75,515.055,991.75,493.676z M947.111,323.014h-10.04c-0.2,7.98-1.021,15.932-2.46,23.791l9.75,2.609
				C945.981,340.705,946.901,331.875,947.111,323.014z M936.92,308.685h10.039c-0.619-9.301-2.029-18.521-4.21-27.57l-9.689,2.6
				C935.031,291.915,936.321,300.264,936.92,308.685z M941.02,363.354l-9.68-2.59c-2.28,8.021-5.189,15.84-8.721,23.391l8.7,5.021
				C935.27,380.854,938.51,372.215,941.02,363.354z M929.159,269.915l9.689-2.6c-2.819-8.69-6.359-17.13-10.58-25.23l-8.68,5.01
				C923.38,254.435,926.579,262.065,929.159,269.915z M924.659,401.885l-8.689-5.021c-4.91,8.439-10.62,16.391-17.029,23.75
				l7.09,7.09C913.05,419.725,919.289,411.075,924.659,401.885z M912.409,234.685l8.721-5.03c-4.86-7.44-10.32-14.48-16.311-21.04
				l-7.101,7.1C903.1,221.655,908.01,227.995,912.409,234.685z M896.14,438.095l-7.101-7.101c-5.96,5.62-12.359,10.76-19.14,15.37
				l5.04,8.72C882.46,450.015,889.55,444.335,896.14,438.095z M887.67,205.495l7.1-7.09c-7.72-7.2-16.109-13.641-25.061-19.23
				l-5.01,8.681C872.89,193.005,880.579,198.905,887.67,205.495z M930.5,319.425c-0.011-81.729-66.261-147.979-147.99-147.979
				c-81.72,0-147.98,66.25-147.98,147.979c0,81.73,66.261,147.98,147.98,147.98c40.87,0,77.859-16.561,104.641-43.341
				C913.941,397.285,930.5,360.285,930.5,319.425z M862.71,462.575l-5.011-8.681c-7.46,4.16-15.25,7.7-23.29,10.58l2.601,9.689
				C845.89,471.045,854.49,467.165,862.71,462.575z M852.231,180.785l5.021-8.7c-8.221-4.24-16.78-7.78-25.591-10.59l-2.601,9.72
				C837.031,173.775,844.781,176.975,852.231,180.785z M823.3,478.375l-2.601-9.689c-9.699,2.5-19.62,4.04-29.62,4.62v10.04
				C801.959,482.755,812.75,481.095,823.3,478.375z M815.191,167.585l2.6-9.68c-8.8-1.9-17.729-3.07-26.71-3.51v10.029
				C799.18,164.844,807.25,165.895,815.191,167.585z M776.74,483.354v-10.029c-9.319-0.32-18.59-1.49-27.7-3.479l-2.59,9.68
				C756.4,481.734,766.55,483.024,776.74,483.354z M776.74,164.195v-10.03c-8.3,0.29-16.569,1.21-24.739,2.74l2.6,9.689
				C761.909,165.264,769.31,164.465,776.74,164.195z M740.61,169.785l-2.59-9.7c-9.41,2.68-18.56,6.18-27.35,10.48l5.04,8.729
				C723.72,175.415,732.05,172.235,740.61,169.785z M732.59,475.854l2.6-9.72c-8.64-2.78-17.029-6.311-25.06-10.57l-5.021,8.71
				C713.9,468.955,723.1,472.835,732.59,475.854z M703.08,186.094l-5.011-8.68c-8.68,5.2-16.869,11.18-24.46,17.88l7.101,7.101
				C687.67,196.304,695.16,190.844,703.08,186.094z M692.79,456.934l5.02-8.681c-6.49-4.26-12.66-9-18.439-14.189l-7.091,7.091
				C678.7,446.945,685.55,452.225,692.79,456.934z M670.37,212.315l-7.101-7.09c-5.939,6.159-11.39,12.779-16.3,19.779l8.75,5.05
				C660.15,223.795,665.05,217.855,670.37,212.315z M662.02,431.144l7.11-7.101c-6.45-6.899-12.26-14.38-17.34-22.33l-8.681,5.011
				C648.63,415.434,654.97,423.615,662.02,431.144z M648.08,242.205l-8.681-5.02c-4.93,8.68-9.05,17.79-12.33,27.21l9.721,2.609
				C639.82,258.415,643.59,250.115,648.08,242.205z M635.98,394.285l8.67-5.011c-4.14-8.199-7.55-16.75-10.18-25.56l-9.69,2.6
				C627.65,375.965,631.4,385.325,635.98,394.285z M632.62,280.725l-9.681-2.601c-2.55,10.01-4.16,20.24-4.8,30.561h10.03
				C628.8,299.245,630.29,289.885,632.62,280.725z M621.29,352.415l9.68-2.601c-1.83-8.819-2.88-17.79-3.15-26.801h-10.04
				C618.07,332.894,619.24,342.734,621.29,352.415z"/>
			<path fill="#FE2B14" d="M953.05,454.975c21.38,0,38.7,17.33,38.7,38.7c0,21.38-17.32,38.71-38.7,38.71
				c-21.37,0-38.7-17.33-38.7-38.71C914.35,472.305,931.68,454.975,953.05,454.975z"/>
			<path fill="#BC760F" d="M937.071,323.014h10.04c-0.21,8.86-1.13,17.69-2.75,26.4l-9.75-2.609
				C936.05,338.945,936.869,330.995,937.071,323.014z"/>
			<path fill="#BC760F" d="M946.96,308.685h-10.04c-0.601-8.421-1.891-16.771-3.86-24.971l9.69-2.6
				C944.93,290.165,946.34,299.385,946.96,308.685z"/>
			<path fill="#BC760F" d="M931.34,360.765l9.68,2.59c-2.51,8.859-5.75,17.5-9.699,25.82l-8.7-5.021
				C926.151,376.604,929.06,368.785,931.34,360.765z"/>
			<path fill="#BC760F" d="M938.85,267.315l-9.689,2.6c-2.58-7.85-5.779-15.479-9.569-22.82l8.68-5.01
				C932.49,250.185,936.031,258.625,938.85,267.315z"/>
			<path fill="#BC760F" d="M915.97,396.865l8.689,5.021c-5.37,9.189-11.609,17.84-18.63,25.819l-7.09-7.09
				C905.35,413.255,911.06,405.305,915.97,396.865z"/>
			<path fill="#BC760F" d="M921.13,229.655l-8.721,5.03c-4.399-6.69-9.311-13.03-14.689-18.971l7.101-7.1
				C910.81,215.175,916.27,222.215,921.13,229.655z"/>
			<path fill="#BC760F" d="M889.039,430.995l7.101,7.101c-6.59,6.239-13.681,11.92-21.199,16.989l-5.04-8.72
				C876.68,441.755,883.079,436.615,889.039,430.995z"/>
			<path fill="#BC760F" d="M894.77,198.405l-7.1,7.09c-7.091-6.59-14.78-12.49-22.971-17.64l5.011-8.681
				C878.659,184.764,887.05,191.205,894.77,198.405z"/>
			<path fill="#191919" d="M782.51,171.445c81.729,0,147.979,66.25,147.99,147.979c0,40.86-16.561,77.86-43.351,104.641
				c-26.78,26.78-63.771,43.341-104.641,43.341c-81.72,0-147.98-66.25-147.98-147.98C634.53,237.695,700.79,171.445,782.51,171.445z
				 M892.85,319.514c0-60.56-49.1-109.649-109.659-109.649c-30.28,0-57.69,12.27-77.529,32.12
				c-19.851,19.84-32.12,47.25-32.12,77.529c0,30.291,12.27,57.7,32.12,77.541c19.839,19.851,47.249,32.12,77.529,32.12
				c30.279,0,57.689-12.271,77.54-32.12C880.579,377.215,892.85,349.805,892.85,319.514z"/>
			<path fill="#BC760F" d="M857.699,453.894l5.011,8.681c-8.221,4.59-16.82,8.47-25.7,11.59l-2.601-9.689
				C842.449,461.595,850.24,458.055,857.699,453.894z"/>
			<path fill="#050304" d="M783.191,209.865c60.561,0,109.659,49.09,109.659,109.649c0,30.291-12.271,57.7-32.119,77.541
				c-19.851,19.851-47.261,32.12-77.54,32.12c-30.28,0-57.69-12.271-77.529-32.12c-19.851-19.841-32.12-47.25-32.12-77.541
				c0-30.279,12.27-57.689,32.12-77.529C725.5,222.135,752.909,209.865,783.191,209.865z M881.38,318.804
				c0-53.84-43.641-97.47-97.471-97.47s-97.47,43.63-97.47,97.47c0,53.831,43.64,97.471,97.47,97.471S881.38,372.635,881.38,318.804
				z"/>
			<path fill="#BC760F" d="M857.25,172.085l-5.021,8.7c-7.45-3.81-15.2-7.01-23.171-9.57l2.601-9.72
				C840.47,164.304,849.031,167.844,857.25,172.085z"/>
			<path fill="#2B2A29" d="M783.909,221.335c53.83,0,97.471,43.63,97.471,97.47c0,53.831-43.641,97.471-97.471,97.471
				s-97.47-43.64-97.47-97.471C686.44,264.965,730.079,221.335,783.909,221.335z M868.481,318.804
				c0-46.71-37.86-84.569-84.57-84.569c-23.35,0-44.5,9.47-59.8,24.77c-15.31,15.3-24.77,36.44-24.77,59.8
				c0,46.7,37.859,84.57,84.569,84.57S868.481,365.505,868.481,318.804z"/>
			<path fill="#050304" d="M783.909,234.235c46.71,0,84.57,37.859,84.57,84.569c0,46.7-37.86,84.57-84.57,84.57
				s-84.569-37.87-84.569-84.57c0-23.359,9.46-44.5,24.77-59.8C739.409,243.705,760.56,234.235,783.909,234.235z M858.449,318.804
				c0-20.579-8.351-39.22-21.83-52.71c-13.5-13.489-32.13-21.83-52.71-21.83c-41.17,0-74.539,33.37-74.539,74.54
				c0,41.16,33.369,74.541,74.539,74.541c20.591,0,39.221-8.341,52.71-21.841C850.111,358.024,858.449,339.385,858.449,318.804z"/>
			<path fill="#2B2A29" d="M836.619,266.094c13.479,13.49,21.83,32.131,21.83,52.71c0,20.581-8.34,39.221-21.83,52.7
				c-13.489,13.5-32.119,21.841-52.71,21.841c-41.17,0-74.539-33.381-74.539-74.541c0-41.17,33.369-74.54,74.539-74.54
				C804.49,244.264,823.119,252.605,836.619,266.094z M846.981,318.804c0-34.84-28.24-63.069-63.07-63.069
				c-17.41,0-33.18,7.06-44.6,18.47c-11.41,11.41-18.47,27.18-18.47,44.6c0,17.421,7.06,33.181,18.47,44.602
				c11.42,11.409,27.189,18.47,44.6,18.47C818.74,381.875,846.981,353.635,846.981,318.804z"/>
			<path fill="#050304" d="M783.909,255.735c34.83,0,63.07,28.229,63.07,63.069c0,34.831-28.24,63.07-63.07,63.07
				c-17.409,0-33.18-7.061-44.6-18.47c-11.41-11.421-18.47-27.181-18.47-44.602c0-17.42,7.06-33.189,18.47-44.6
				C750.73,262.795,766.5,255.735,783.909,255.735z M838.38,318.804c0-30.09-24.391-54.47-54.471-54.47s-54.47,24.38-54.47,54.47
				c0,15.041,6.1,28.66,15.96,38.521c9.851,9.851,23.47,15.949,38.51,15.949s28.66-6.1,38.511-15.949
				C832.281,347.465,838.38,333.845,838.38,318.804z"/>
			<polygon fill="#050304" points="806.02,280.295 828.119,318.585 806.02,356.875 761.8,356.875 739.699,318.585 761.8,280.295 			
				"/>
			<path fill="#2B2A29" d="M783.909,264.335c30.08,0,54.471,24.38,54.471,54.47c0,15.041-6.101,28.66-15.96,38.521
				c-9.851,9.851-23.471,15.949-38.511,15.949s-28.659-6.1-38.51-15.949c-9.86-9.859-15.96-23.479-15.96-38.521
				C729.44,288.715,753.829,264.335,783.909,264.335z M828.119,318.585l-22.101-38.29H761.8l-22.101,38.29l22.101,38.29h44.22
				L828.119,318.585z"/>
			<path fill="#BC760F" d="M820.699,468.684l2.601,9.689c-10.55,2.721-21.341,4.38-32.221,4.971v-10.04
				C801.079,472.725,811,471.184,820.699,468.684z"/>
			<path fill="#BC760F" d="M817.789,157.905l-2.6,9.68c-7.939-1.689-16.011-2.74-24.11-3.16v-10.029
				C800.06,154.835,808.99,156.005,817.789,157.905z"/>
			<path fill="#BC760F" d="M776.74,473.325v10.029c-10.189-0.33-20.34-1.62-30.29-3.83l2.59-9.68
				C758.15,471.835,767.42,473.005,776.74,473.325z"/>
			<path fill="#BC760F" d="M776.74,154.165v10.03c-7.43,0.27-14.83,1.069-22.14,2.399l-2.601-9.689
				C760.17,155.375,768.44,154.455,776.74,154.165z"/>
			<path fill="#BC760F" d="M738.02,160.085l2.59,9.7c-8.56,2.45-16.89,5.63-24.899,9.51l-5.04-8.729
				C719.46,166.264,728.61,162.764,738.02,160.085z"/>
			<path fill="#BC760F" d="M735.19,466.135l-2.6,9.72c-9.49-3.021-18.69-6.899-27.48-11.58l5.021-8.71
				C718.16,459.825,726.55,463.354,735.19,466.135z"/>
			<path fill="#BC760F" d="M698.07,177.415l5.011,8.68c-7.92,4.75-15.41,10.21-22.37,16.301l-7.101-7.101
				C681.2,188.594,689.39,182.615,698.07,177.415z"/>
			<path fill="#BC760F" d="M697.81,448.255l-5.02,8.681c-7.24-4.71-14.09-9.989-20.511-15.779l7.091-7.091
				C685.15,439.255,691.32,443.995,697.81,448.255z"/>
			<path fill="#BC760F" d="M663.27,205.225l7.101,7.09c-5.32,5.54-10.221,11.479-14.65,17.739l-8.75-5.05
				C651.88,218.005,657.33,211.385,663.27,205.225z"/>
			<path fill="#BC760F" d="M669.13,424.045l-7.11,7.101c-7.05-7.529-13.39-15.71-18.91-24.42l8.681-5.011
				C656.87,409.665,662.68,417.144,669.13,424.045z"/>
			<path fill="#BC760F" d="M639.4,237.185l8.681,5.02c-4.49,7.91-8.261,16.21-11.29,24.8l-9.721-2.609
				C630.35,254.975,634.47,245.865,639.4,237.185z"/>
			<path fill="#BC760F" d="M644.65,389.274l-8.67,5.011c-4.58-8.96-8.33-18.32-11.2-27.971l9.69-2.601
				C637.1,372.524,640.51,381.075,644.65,389.274z"/>
			<path fill="#BC760F" d="M622.94,278.125l9.681,2.601c-2.33,9.159-3.82,18.52-4.45,27.96h-10.03
				C618.78,298.365,620.39,288.135,622.94,278.125z"/>
			<path fill="#BC760F" d="M630.97,349.814l-9.68,2.601c-2.05-9.681-3.221-19.521-3.511-29.4h10.04
				C628.09,332.024,629.14,340.995,630.97,349.814z"/>
		</g>
	</g>
</g>
<g id="Layer_2">
	<circle fill="#FE2B14" stroke="#050304" stroke-width="6" stroke-miterlimit="10" cx="394.577" cy="228.5" r="53.21"/>
	<path fill="#191919" stroke="#050304" stroke-width="6" stroke-miterlimit="10" d="M145.222,205.265h-34.271v-34.271
		c0-6.627-5.373-12-12-12H76.481c-6.627,0-12,5.373-12,12v34.271H30.212c-6.627,0-12,5.373-12,12v22.469c0,6.629,5.373,12,12,12
		h34.269v34.271c0,6.627,5.373,12,12,12h22.472c6.627,0,12-5.373,12-12v-34.271h34.271c6.627,0,12-5.371,12-12v-22.469
		C157.222,210.637,151.85,205.265,145.222,205.265z"/>
</g>
</svg>
